<svg width="40" height="48" viewBox="0 0 40 48" fill="none" xmlns="http://www.w3.org/2000/svg">
<path fill-rule="evenodd" clip-rule="evenodd" d="M11.6667 38.2041L10 38.2041L10 41.4694L11.6667 41.4694L11.6667 44.7347L13.3333 44.7347L13.3333 46.3674L15 46.3674L15 44.7347L16.6667 44.7347L16.6667 46.3674L18.3333 46.3674L18.3333 48L20 48L20 46.3674L21.6667 46.3674L21.6667 48L23.3333 48L23.3333 46.3674L25 46.3674L25 44.7347L26.6667 44.7347L26.6667 43.1021L28.3333 43.1021L28.3333 41.4694L30 41.4694L30 38.2041L28.3333 38.2041L26.6667 38.2041L26.6667 41.4694L25 41.4694L25 43.1021L23.3333 43.1021L23.3333 44.7347L21.6667 44.7347L21.6667 43.1021L20 43.1021L20 44.7347L18.3333 44.7347L18.3333 41.4694L16.6667 41.4694L16.6667 43.1021L15 43.1021L15 41.4694L13.3333 41.4694L13.3333 38.2041L11.6667 38.2041Z" fill="#FF585D"/>
<path fill-rule="evenodd" clip-rule="evenodd" d="M14.9999 38.2041L13.3333 38.2041L13.3333 41.4694L14.9999 41.4694L14.9999 43.1021L16.6666 43.1021L16.6666 41.4694L18.3333 41.4694L18.3333 44.7347L19.9999 44.7347L19.9999 43.1021L21.6666 43.1021L21.6666 44.7347L23.3333 44.7347L23.3333 43.1021L24.9999 43.1021L24.9999 41.4694L26.6666 41.4694L26.6666 38.2041L24.9999 38.2041L23.3333 38.2041L21.6666 38.2041L19.9999 38.2041L18.3333 38.2041L16.6666 38.2041L14.9999 38.2041Z" fill="#0B24FB"/>
<path d="M32.449 35.6856C32.449 35.066 32.7403 34.4863 33.2114 34.0838C37.3846 30.5178 40 25.2867 40 19.4567C40 8.71107 31.0457 0 20 0C8.95431 0 0 8.71107 0 19.4567C0 25.2867 2.61545 30.5178 6.78864 34.0838C7.25966 34.4863 7.55102 35.066 7.55102 35.6856C7.55102 36.2975 7.55102 36.9518 7.55102 37.447C7.55102 37.6216 7.62993 37.7872 7.77257 37.8932C8.79616 38.6539 13.3047 40.3032 20 40.3032C26.6953 40.3032 31.2038 38.6539 32.2274 37.8932C32.3701 37.7872 32.449 37.6216 32.449 37.447C32.449 36.9518 32.449 36.2975 32.449 35.6856Z" fill="white"/>
<ellipse cx="20" cy="19.5917" rx="19" ry="18.6122" fill="black"/>
<path d="M8.42879 9.22664C6.396 10.5715 8.45444 19.1594 8.45444 19.1594L14.6939 13.3735C14.6939 13.3735 9.13827 8.75728 8.42879 9.22664Z" fill="black"/>
<path d="M21.3135 12.1158L29.1621 15.895C29.1621 15.895 27.9617 6.42543 25.8417 5.78762C24.2681 5.31415 21.8319 11.0321 21.3135 12.1158Z" fill="black"/>
<path fill-rule="evenodd" clip-rule="evenodd" d="M29.9687 14.0751C29.8225 13.1999 29.6177 12.091 29.3568 10.9613C29.0695 9.71707 28.7049 8.40595 28.2598 7.34662C28.0381 6.81874 27.7795 6.31211 27.4743 5.89787C27.0954 5.38336 26.541 4.89022 25.868 4.8284C25.3236 4.77859 24.8097 5.05135 24.4074 5.38812C23.3675 6.40801 22.6906 7.46202 22.036 8.57717C21.5027 9.48589 21.0311 10.3831 20.7201 10.9936C19.9614 11.0016 19.1911 11.0647 18.4151 11.1863C17.1417 11.386 15.9333 11.7307 14.8091 12.1975C14.2609 11.7549 13.3914 11.0643 12.4831 10.391C11.7361 9.83715 10.9388 9.27704 10.2683 8.88081C9.80049 8.60428 9.28254 8.30862 8.72715 8.25267C8.53598 8.23337 8.16997 8.22895 7.8204 8.46021C7.30852 8.79887 7.0093 9.30641 6.82775 9.78367C6.64361 10.2679 6.54412 10.8157 6.49284 11.3648C6.39016 12.4639 6.46571 13.7456 6.59897 14.9298C6.73343 16.1245 6.93255 17.2694 7.09699 18.1122C7.20864 18.6843 7.30512 19.1213 7.35661 19.3474C6.55712 21.2405 6.26566 23.3167 6.60965 25.4223C7.55196 31.1907 17.7752 36.1083 23.5282 35.2065C29.2811 34.3046 35.1081 26.8711 34.1659 21.1027C33.7034 18.2716 32.1665 15.8423 29.9687 14.0751ZM27.4666 12.4889C26.123 11.8299 24.6417 11.371 23.0794 11.1477C23.3253 10.6852 23.6132 10.1618 23.9204 9.63838C24.4036 8.81491 24.9371 7.98331 25.5835 7.24505C25.6399 7.18059 25.7427 7.18546 25.79 7.25665C25.9767 7.53796 26.12 7.84788 26.2499 8.15689C26.6261 9.05248 26.9591 10.2283 27.2369 11.4311C27.3191 11.7875 27.3957 12.1426 27.4666 12.4889ZM12.7096 13.2682C11.26 14.1581 10.0109 15.2707 9.01914 16.5374C8.92376 15.9651 8.83142 15.3363 8.75945 14.6965C8.63216 13.5656 8.57426 12.4482 8.65737 11.5588C8.69042 11.205 8.74344 10.9153 8.81018 10.6893C8.83328 10.6111 8.92456 10.5771 8.99688 10.6172C9.76243 11.0416 10.4723 11.5704 11.1715 12.0888C11.718 12.4939 12.2537 12.9084 12.7096 13.2682Z" fill="white"/>
<path d="M25.6779 26.5259C25.5485 26.2727 25.5535 25.9662 25.6553 25.7003L25.9971 24.8079C26.1142 24.5021 25.8529 24.189 25.5677 24.2934L23.7507 24.9592C23.4655 25.0636 23.4205 25.4889 23.6768 25.6579L24.2054 26.0067C24.46 26.1747 24.6323 26.4497 24.636 26.7549C24.6372 26.8569 24.6345 26.9572 24.626 27.0568C24.5955 27.4131 24.4922 27.7176 24.2355 27.972C23.929 28.2756 23.5779 28.4341 23.1253 28.4652C22.8784 28.4822 22.5146 28.3007 22.3629 28.0862C22.2444 27.9188 22.0134 27.7368 21.7517 27.9641C21.3195 28.3395 21.7572 28.6728 21.8756 28.8402C22.0184 29.0421 22.2542 29.2106 22.4766 29.3236C22.6994 29.4365 22.9771 29.5284 23.2278 29.5112C23.8249 29.4702 24.3305 29.2506 24.7652 28.82C24.9972 28.5902 25.1492 28.3334 25.2462 28.0668C25.3192 27.8661 25.6091 27.7727 25.7992 27.8696C26.057 28.001 26.338 28.0475 26.6144 28.0493C26.8359 28.0508 27.1044 28.0089 27.3531 27.9148C27.5936 27.8238 27.8684 27.6637 28.035 27.387C28.2021 27.1096 28.3025 26.8825 28.3992 26.4781C28.5106 26.0123 28.6238 25.7676 28.2355 25.6579C27.7997 25.5349 27.707 25.8055 27.6576 26.0123C27.5642 26.4031 27.4325 26.7707 27.0664 26.9093C26.897 26.9734 26.7072 27.0027 26.5594 27.0018C26.2221 26.9996 25.9785 26.9126 25.8024 26.7146C25.7529 26.6589 25.7129 26.5944 25.6779 26.5259Z" fill="black"/>
<path d="M21.2341 15.8387C24.4576 17.5093 22.7119 26.3754 17.8919 28.5183C9.54287 32.2301 9.11351 21.8999 11.1782 18.9823C12.3418 17.3381 20.4287 15.4212 21.2341 15.8387Z" fill="#222222"/>
<path fill-rule="evenodd" clip-rule="evenodd" d="M20.932 16.5855C20.8773 16.5818 20.7921 16.5811 20.6718 16.5874C20.4137 16.6008 20.0602 16.6428 19.6306 16.7136C18.7753 16.8547 17.6817 17.0995 16.5706 17.4094C15.4581 17.7197 14.3507 18.089 13.4612 18.474C13.016 18.6667 12.6408 18.8567 12.3523 19.0372C12.0506 19.2259 11.9016 19.3688 11.846 19.4474C11.4414 20.0191 11.1043 21.0572 10.9911 22.3069C10.8794 23.54 10.9964 24.8683 11.395 25.9767C11.7932 27.0842 12.4386 27.8919 13.3376 28.2661C14.2368 28.6404 15.5821 28.6614 17.5504 27.7863C19.6409 26.8569 21.1809 24.3812 21.7882 21.8097C22.0875 20.542 22.1396 19.327 21.9521 18.365C21.7708 17.435 21.3948 16.8588 20.932 16.5855ZM20.9724 16.5893C20.978 16.5901 20.9805 16.5907 20.9804 16.5908C20.9803 16.5909 20.9775 16.5905 20.9724 16.5893ZM17.8919 28.5183C22.7119 26.3754 24.4576 17.5093 21.2341 15.8387C20.4287 15.4212 12.3418 17.3381 11.1782 18.9823C9.11351 21.8999 9.54287 32.2301 17.8919 28.5183Z" fill="#333333"/>
<path d="M13.2061 18.4751C13.8865 18.1337 14.6816 17.9344 15.3488 17.7956L20.5992 25.0441C20.038 26.1644 19.4731 26.7228 18.3396 27.2776L13.2061 18.4751Z" fill="white"/>
<path fill-rule="evenodd" clip-rule="evenodd" d="M20.932 16.5855C20.8773 16.5818 20.7921 16.5811 20.6718 16.5874C20.4137 16.6008 20.0602 16.6428 19.6306 16.7136C18.7753 16.8547 17.6817 17.0995 16.5706 17.4094C15.4581 17.7197 14.3507 18.089 13.4612 18.474C13.016 18.6667 12.6408 18.8567 12.3523 19.0372C12.0506 19.2259 11.9016 19.3688 11.846 19.4474C11.4414 20.0191 11.1043 21.0572 10.9911 22.3069C10.8794 23.54 10.9964 24.8683 11.395 25.9767C11.7932 27.0842 12.4386 27.8919 13.3376 28.2661C14.2368 28.6404 15.5821 28.6614 17.5504 27.7863C19.6409 26.8569 21.1809 24.3812 21.7882 21.8097C22.0875 20.542 22.1396 19.327 21.9521 18.365C21.7708 17.435 21.3948 16.8588 20.932 16.5855ZM20.9724 16.5893C20.978 16.5901 20.9805 16.5907 20.9804 16.5908C20.9803 16.5909 20.9775 16.5905 20.9724 16.5893ZM17.8919 28.5183C22.7119 26.3754 24.4576 17.5093 21.2341 15.8387C20.4287 15.4212 12.3418 17.3381 11.1782 18.9823C9.11351 21.8999 9.54287 32.2301 17.8919 28.5183Z" fill="#333333"/>
<path d="M23.0397 15.4829C22.6105 18.1284 25.7535 24.0633 30.2861 23.4245C35.0797 22.7491 34.4802 14.7964 31.7255 13.6175C30.173 12.9531 23.1573 14.758 23.0397 15.4829Z" fill="#222222"/>
<path fill-rule="evenodd" clip-rule="evenodd" d="M23.8173 15.8507C23.7904 16.3257 23.8839 16.963 24.1251 17.6891C24.4033 18.5266 24.8574 19.4186 25.4534 20.2147C26.6627 21.8299 28.317 22.8911 30.1611 22.6313C31.9869 22.374 32.9273 20.7296 33.025 18.6621C33.0726 17.6555 32.9043 16.6444 32.5818 15.8379C32.2494 15.0067 31.8095 14.5228 31.4104 14.352C31.3572 14.3292 31.1993 14.2895 30.8909 14.2779C30.6003 14.267 30.2383 14.2827 29.8216 14.324C28.9892 14.4066 27.9996 14.5851 27.0415 14.8091C26.0828 15.0332 25.1813 15.2968 24.5242 15.5421C24.207 15.6605 23.9703 15.766 23.8173 15.8507ZM30.2861 23.4245C25.7535 24.0633 22.6105 18.1284 23.0397 15.4829C23.1573 14.758 30.173 12.9531 31.7255 13.6175C34.4802 14.7964 35.0797 22.7491 30.2861 23.4245Z" fill="#333333"/>
<path d="M26.334 14.8937L28.0359 14.3426L32.6285 21.1136C32.6285 21.1136 33.0474 20.7962 32.6321 21.676C32.2168 22.5558 30.934 22.7888 30.934 22.7888L26.334 14.8937Z" fill="white"/>
<path fill-rule="evenodd" clip-rule="evenodd" d="M23.8173 15.8507C23.7904 16.3257 23.8839 16.963 24.1251 17.6891C24.4033 18.5266 24.8574 19.4186 25.4534 20.2147C26.6627 21.8299 28.317 22.8911 30.1611 22.6313C31.9869 22.374 32.9273 20.7296 33.025 18.6621C33.0726 17.6555 32.9043 16.6444 32.5818 15.8379C32.2494 15.0067 31.8095 14.5228 31.4104 14.352C31.3572 14.3292 31.1993 14.2895 30.8909 14.2779C30.6003 14.267 30.2383 14.2827 29.8216 14.324C28.9892 14.4066 27.9996 14.5851 27.0415 14.8091C26.0828 15.0332 25.1813 15.2968 24.5242 15.5421C24.207 15.6605 23.9703 15.766 23.8173 15.8507ZM30.2861 23.4245C25.7535 24.0633 22.6105 18.1284 23.0397 15.4829C23.1573 14.758 30.173 12.9531 31.7255 13.6175C34.4802 14.7964 35.0797 22.7491 30.2861 23.4245Z" fill="#333333"/>
<path d="M5.23814 23.6267C5.14288 23.3497 5.29585 23.0519 5.57982 22.9616L10.1071 21.5214C10.3911 21.431 10.6985 21.5823 10.7938 21.8593C10.889 22.1363 10.7361 22.4341 10.4521 22.5244L5.92481 23.9646C5.64084 24.055 5.33341 23.9036 5.23814 23.6267Z" fill="#333333"/>
<path d="M21.349 16.0352C21.349 16.0352 21.5424 15.8023 22.2241 15.5844C22.9057 15.3665 23.3227 15.4663 23.3227 15.4663L23.51 16.5518C23.51 16.5518 22.9323 16.1852 22.4102 16.4052C21.888 16.6252 21.8705 17.0604 21.8705 17.0604L21.349 16.0352Z" fill="#333333"/>
</svg>
